<?xml version="1.0" encoding="UTF-8"?>
<svg height="16px" viewBox="0 0 16 16" width="16px" xmlns="http://www.w3.org/2000/svg">
    <path d="m 8 1 c -3.859375 0 -7 3.140625 -7 7 s 3.140625 7 7 7 s 7 -3.140625 7 -7 s -3.140625 -7 -7 -7 z m 0 1 c 3.320312 0 6 2.679688 6 6 s -2.679688 6 -6 6 s -6 -2.679688 -6 -6 s 2.679688 -6 6 -6 z m 0 0"/>
    <path d="m 8 2.265625 l -0.800781 5.683594 h 0.003906 c -0.015625 0.296875 0.132813 0.582031 0.386719 0.734375 c 0.25 0.15625 0.570312 0.15625 0.824218 0 c 0.25 -0.152344 0.398438 -0.4375 0.386719 -0.734375 z m 0 0"/>
    <path d="m 8 2.265625 l -0.800781 5.683594 h 0.003906 c -0.015625 0.296875 0.132813 0.582031 0.386719 0.734375 c 0.25 0.15625 0.570312 0.15625 0.824218 0 c 0.25 -0.152344 0.398438 -0.4375 0.386719 -0.734375 z m 0 0"/>
</svg>
