<?xml version="1.0" encoding="UTF-8"?>
<svg height="128px" viewBox="0 0 128 128" width="128px" xmlns="http://www.w3.org/2000/svg" xmlns:xlink="http://www.w3.org/1999/xlink">
    <linearGradient id="a" gradientUnits="userSpaceOnUse" x1="8.0000155" x2="120.0000155" y1="115.999977" y2="115.999977">
        <stop offset="0" stop-color="#77767b"/>
        <stop offset="0.0357143" stop-color="#c0bfbc"/>
        <stop offset="0.0713653" stop-color="#9a9996"/>
        <stop offset="0.928571" stop-color="#9a9996"/>
        <stop offset="0.964286" stop-color="#c0bfbc"/>
        <stop offset="1" stop-color="#77767b"/>
    </linearGradient>
    <path d="m 16 40 h 96 c 4.417969 0 8 3.582031 8 8 v 60 c 0 4.417969 -3.582031 8 -8 8 h -96 c -4.417969 0 -8 -3.582031 -8 -8 v -60 c 0 -4.417969 3.582031 -8 8 -8 z m 0 0" fill="url(#a)"/>
    <path d="m 16 28 h 96 c 4.417969 0 8 3.582031 8 8 v 68 c 0 4.417969 -3.582031 8 -8 8 h -96 c -4.417969 0 -8 -3.582031 -8 -8 v -68 c 0 -4.417969 3.582031 -8 8 -8 z m 0 0" fill="#deddda"/>
    <path d="m 24.902344 63.164062 c -4.4375 0 -7.535156 -1.195312 -9.300782 -3.582031 c -1.734374 -2.390625 -2.601562 -6.160156 -2.601562 -11.308593 c 0 -5.175782 0.882812 -9.015626 2.644531 -11.519532 c 1.792969 -2.503906 4.878907 -3.753906 9.257813 -3.753906 c 4.382812 0 7.453125 1.25 9.21875 3.753906 c 1.761718 2.476563 2.644531 6.300782 2.644531 11.476563 c 0 3.414062 -0.371094 6.175781 -1.109375 8.277343 c -0.710938 2.105469 -1.890625 3.714844 -3.542969 4.824219 l 3.585938 5.757813 l -4.394531 2.050781 l -3.796876 -6.230469 c -0.542968 0.167969 -1.410156 0.253906 -2.605468 0.253906 z m -5.546875 -6.613281 c 0.96875 1.652344 2.816406 2.476563 5.546875 2.476563 c 2.730468 0 4.566406 -0.8125 5.503906 -2.433594 c 0.96875 -1.648438 1.453125 -4.421875 1.453125 -8.320312 c 0 -3.894532 -0.5 -6.726563 -1.492187 -8.488282 c -0.96875 -1.765625 -2.789063 -2.644531 -5.464844 -2.644531 c -2.671875 0 -4.507813 0.878906 -5.503906 2.644531 c -0.992188 1.761719 -1.492188 4.578125 -1.492188 8.445313 c 0 3.871093 0.484375 6.644531 1.449219 8.320312 z m 0 0" fill="#1c71d8"/>
    <path d="m 23.902344 62.164062 c -4.4375 0 -7.535156 -1.195312 -9.300782 -3.582031 c -1.734374 -2.390625 -2.601562 -6.160156 -2.601562 -11.308593 c 0 -5.175782 0.882812 -9.015626 2.644531 -11.519532 c 1.792969 -2.503906 4.878907 -3.753906 9.257813 -3.753906 c 4.382812 0 7.453125 1.25 9.21875 3.753906 c 1.761718 2.476563 2.644531 6.300782 2.644531 11.476563 c 0 3.414062 -0.371094 6.175781 -1.109375 8.277343 c -0.710938 2.105469 -1.890625 3.714844 -3.542969 4.824219 l 3.585938 5.757813 l -4.394531 2.050781 l -3.796876 -6.230469 c -0.542968 0.167969 -1.410156 0.253906 -2.605468 0.253906 z m -5.546875 -6.613281 c 0.96875 1.652344 2.816406 2.476563 5.546875 2.476563 c 2.730468 0 4.566406 -0.8125 5.503906 -2.433594 c 0.96875 -1.648438 1.453125 -4.421875 1.453125 -8.320312 c 0 -3.894532 -0.5 -6.726563 -1.492187 -8.488282 c -0.96875 -1.765625 -2.789063 -2.644531 -5.464844 -2.644531 c -2.671875 0 -4.507813 0.878906 -5.503906 2.644531 c -0.992188 1.761719 -1.492188 4.578125 -1.492188 8.445313 c 0 3.871093 0.484375 6.644531 1.449219 8.320312 z m 0 0" fill="#3584e4"/>
    <path d="m 52.777344 32 h 54.445312 c 4.296875 0 7.777344 3.582031 7.777344 8 v 60 c 0 4.417969 -3.480469 8 -7.777344 8 h -54.445312 c -4.296875 0 -7.777344 -3.582031 -7.777344 -8 v -60 c 0 -4.417969 3.480469 -8 7.777344 -8 z m 0 0" fill="#333333"/>
    <path d="m 112 71 c 0 17.671875 -14.328125 32 -32 32 s -32 -14.328125 -32 -32 s 14.328125 -32 32 -32 s 32 14.328125 32 32 z m 0 0" fill="#a3a3a3"/>
    <path d="m 112 69 c 0 17.671875 -14.328125 32 -32 32 s -32 -14.328125 -32 -32 s 14.328125 -32 32 -32 s 32 14.328125 32 32 z m 0 0" fill="#f1f1f1"/>
    <path d="m 80.914062 40.167969 l -3.652343 30.472656 c -0.070313 1.347656 0.609375 2.625 1.769531 3.320313 c 1.160156 0.699218 2.609375 0.699218 3.765625 0 c 1.160156 -0.695313 1.839844 -1.972657 1.769531 -3.320313 z m 0 0" fill-opacity="0.513726"/>
    <path d="m 80 38.335938 l -3.652344 30.476562 c -0.070312 1.347656 0.609375 2.625 1.769532 3.320312 c 1.160156 0.699219 2.609374 0.699219 3.765624 0 c 1.160157 -0.695312 1.839844 -1.972656 1.769532 -3.320312 z m 0 0" fill="#e50000"/>
    <path d="m 21.261719 74 h 11.476562 c 5.113281 0 9.261719 4.242188 9.261719 9.476562 v 15.046876 c 0 5.234374 -4.148438 9.476562 -9.261719 9.476562 h -11.476562 c -5.113281 0 -9.261719 -4.242188 -9.261719 -9.476562 v -15.046876 c 0 -5.234374 4.148438 -9.476562 9.261719 -9.476562 z m 0 0" fill="#333333"/>
    <path d="m 38.546875 91 l -5.773437 10 h -11.546876 l -5.773437 -10 l 5.773437 -10 h 11.546876 z m 0 0" fill="#e50000"/>
</svg>
